<svg xmlns="http://www.w3.org/2000/svg" xml:space="preserve" width="256" height="256"><g style="stroke:none;stroke-width:0;stroke-dasharray:none;stroke-linecap:butt;stroke-linejoin:miter;stroke-miterlimit:10;fill:none;fill-rule:nonzero;opacity:1"><path d="M69.671 88.046c-.808 0-1.62-.195-2.37-.59L45 75.732 22.7 87.456a5.058 5.058 0 0 1-5.356-.388 5.055 5.055 0 0 1-2.023-4.972l4.259-24.832L1.539 39.678a5.055 5.055 0 0 1-1.287-5.213 5.055 5.055 0 0 1 4.105-3.461l24.932-3.622L40.44 4.79A5.053 5.053 0 0 1 45 1.955h.001a5.053 5.053 0 0 1 4.559 2.834l11.15 22.592 24.932 3.623a5.05 5.05 0 0 1 4.105 3.461 5.054 5.054 0 0 1-1.287 5.213L70.419 57.264l4.26 24.832a5.053 5.053 0 0 1-2.023 4.972 5.063 5.063 0 0 1-2.985.978zM7.055 36.676l17.058 16.628a5.082 5.082 0 0 1 1.462 4.502l-4.027 23.479 21.086-11.086a5.083 5.083 0 0 1 4.732 0l21.085 11.086-4.027-23.48a5.084 5.084 0 0 1 1.463-4.501l17.058-16.628-23.573-3.426a5.086 5.086 0 0 1-3.829-2.783L45 9.106 34.457 30.468a5.087 5.087 0 0 1-3.827 2.782L7.055 36.676zm77.724.266h.011-.011zM44.18 7.444l.001.002-.001-.002c0 .001 0 .001 0 0z" style="stroke:none;stroke-width:1;stroke-dasharray:none;stroke-linecap:butt;stroke-linejoin:miter;stroke-miterlimit:10;fill:#000;fill-rule:nonzero;opacity:1" transform="matrix(2.81 0 0 2.81 1.407 1.407)"/></g></svg>